<?xml version="1.0" standalone="no"?>
<!DOCTYPE svg PUBLIC "-//W3C//DTD SVG 20010904//EN"
 "http://www.w3.org/TR/2001/REC-SVG-20010904/DTD/svg10.dtd">
<svg version="1.0" xmlns="http://www.w3.org/2000/svg"
 width="512.000000pt" height="512.000000pt" viewBox="0 0 512.000000 512.000000"
 preserveAspectRatio="xMidYMid meet">
<metadata>
Created by potrace 1.14, written by Peter Selinger 2001-2017
</metadata>
<g transform="translate(0.000000,512.000000) scale(0.100000,-0.100000)"
fill="#000000" stroke="none">
<path d="M2349 5106 c-2 -2 -38 -7 -79 -10 -242 -22 -633 -136 -835 -245 -22
-11 -45 -21 -52 -21 -7 0 -13 -4 -13 -10 0 -5 -5 -10 -12 -10 -13 0 -189 -106
-263 -159 -46 -32 -87 -64 -200 -154 -69 -55 -249 -241 -327 -339 -297 -371
-470 -768 -544 -1253 -18 -117 -25 -449 -11 -560 4 -33 10 -80 13 -105 4 -37
19 -123 50 -287 11 -60 79 -276 120 -380 50 -132 156 -341 228 -450 178 -275
451 -542 732 -719 262 -164 617 -301 904 -349 19 -3 60 -10 90 -15 121 -20
205 -25 435 -24 230 1 330 10 530 49 211 41 465 132 671 239 238 125 409 250
599 441 338 338 555 745 665 1249 31 142 36 172 55 346 14 133 12 418 -5 535
-89 634 -377 1177 -846 1595 -246 220 -528 384 -869 507 -111 40 -352 95 -515
119 -49 7 -514 16 -521 10z m61 -385 c0 -111 22 -161 86 -191 34 -17 54 -20
82 -15 97 18 132 74 132 209 l0 84 48 -4 c47 -5 220 -30 257 -38 287 -62 541
-167 777 -321 100 -66 231 -165 243 -185 4 -6 -23 -42 -59 -81 -36 -38 -66
-75 -67 -82 0 -6 -2 -27 -5 -45 -9 -68 55 -147 127 -156 55 -7 102 16 167 82
l62 62 56 -68 c259 -310 451 -772 490 -1182 3 -36 7 -69 8 -75 0 -6 -31 -10
-72 -11 -99 -3 -135 -10 -164 -37 -44 -38 -57 -68 -54 -122 4 -59 16 -83 63
-115 32 -22 69 -28 194 -30 l35 0 -8 -67 c-11 -99 -17 -145 -23 -173 -3 -14
-8 -41 -11 -60 -20 -129 -99 -360 -178 -525 -81 -168 -182 -324 -309 -480
l-25 -30 -65 62 c-95 91 -151 105 -223 57 -47 -32 -51 -37 -65 -89 -16 -59 1
-102 72 -175 33 -34 58 -68 55 -75 -6 -18 -179 -146 -288 -214 -295 -184 -624
-295 -970 -327 l-68 -6 0 75 c0 104 -8 133 -46 172 -51 53 -132 59 -195 14
-43 -30 -59 -78 -59 -176 l0 -85 -67 6 c-84 8 -151 17 -223 31 -14 3 -34 7
-45 9 -190 37 -472 149 -670 267 -110 65 -316 215 -322 235 -2 5 22 37 53 69
68 73 82 98 79 152 -4 100 -107 168 -200 133 -15 -6 -56 -38 -90 -71 -35 -34
-68 -58 -73 -55 -5 3 -44 50 -85 104 -253 330 -415 738 -453 1137 -3 33 -7 66
-9 73 -3 7 5 12 18 12 166 4 176 5 203 26 51 38 69 71 69 128 -1 104 -62 149
-204 148 l-84 -1 7 82 c3 45 12 116 20 157 8 41 17 86 19 100 24 126 104 353
179 507 72 147 222 380 278 433 3 3 15 18 27 33 l22 28 66 -65 c68 -68 104
-85 164 -80 49 5 103 52 120 103 20 64 3 111 -71 187 -33 35 -57 68 -53 73 12
21 142 120 241 184 224 147 485 257 734 313 11 2 30 6 43 9 42 10 249 39 295
41 9 0 12 -23 12 -85z"/>
<path d="M2492 4183 c-18 -9 -43 -30 -55 -47 l-22 -31 -3 -647 -2 -647 -98 58
c-53 31 -104 60 -112 64 -8 4 -31 17 -50 28 -19 12 -156 91 -305 177 -301 173
-332 184 -399 143 -38 -24 -76 -91 -76 -135 0 -16 10 -45 21 -66 19 -33 68
-65 407 -261 213 -123 394 -228 403 -234 10 -5 30 -17 46 -26 15 -8 80 -45
143 -81 63 -37 132 -70 152 -73 45 -9 113 21 143 63 20 26 20 45 23 820 3 885
6 838 -67 888 -42 28 -100 31 -149 7z"/>
</g>
</svg>
